<svg width="52" height="32" viewBox="0 0 52 32" fill="none" xmlns="http://www.w3.org/2000/svg">
<path fill-rule="evenodd" clip-rule="evenodd" d="M19.6308 16C19.6308 10.9138 21.9807 6.38531 25.6396 3.45472C22.9415 1.29373 19.5333 0 15.8241 0C7.08476 0 0 7.16351 0 16C0 24.8365 7.08476 32 15.8241 32C19.5333 32 22.9415 30.7063 25.6396 28.5453C21.9807 25.6147 19.6308 21.0862 19.6308 16Z" fill="#EB001B"/>
<path fill-rule="evenodd" clip-rule="evenodd" d="M19.6308 16C19.6308 21.0862 21.9807 25.6147 25.6396 28.5453C29.2983 25.6147 31.6479 21.0859 31.6479 15.9997C31.6479 10.9134 29.2983 6.38531 25.6396 3.45472C21.9807 6.38531 19.6308 10.9138 19.6308 16Z" fill="#FF5E00"/>
<path fill-rule="evenodd" clip-rule="evenodd" d="M35.4547 0C31.7455 0 28.3374 1.29373 25.6396 3.45472C29.2983 6.38531 31.6479 10.9134 31.6479 15.9997C31.6479 21.0859 29.2983 25.6147 25.6396 28.5453C28.3374 30.7063 31.7455 32 35.4547 32C44.194 32 51.2788 24.8365 51.2788 16C51.2788 7.16351 44.194 0 35.4547 0Z" fill="#F79E1C"/>
</svg>
