<svg width="73" height="24" viewBox="0 0 73 24" fill="none" xmlns="http://www.w3.org/2000/svg">
<path fill-rule="evenodd" clip-rule="evenodd" d="M52.7691 1.01093L51.9292 5.98992C49.4106 4.56656 43.6787 4.22979 43.6781 6.85138C43.6781 7.89286 44.975 8.60912 46.5381 9.47241C48.9088 10.7817 51.8917 12.4291 51.8917 16.062C51.8917 21.8671 45.8326 24 41.8162 24C37.801 24 35.173 22.6908 35.173 22.6908L36.048 17.4848C38.4577 19.4688 45.7595 20.0326 45.7595 16.8863C45.7595 15.5642 44.3221 14.7845 42.6553 13.8804C40.3555 12.6329 37.619 11.1486 37.619 7.67563C37.619 1.30925 44.5549 0 47.4756 0C50.1774 0 52.7691 1.01093 52.7691 1.01093ZM72.4067 23.6H67.0025L66.3132 20.156H58.8312L57.6043 23.6H51.469L60.2468 2.14156C60.2468 2.14156 60.779 0.413675 62.9637 0.413675H67.6949L72.4067 23.6ZM20.7099 0.414296L15.0989 16.3616L14.4349 12.9275L12.4551 2.5019C12.4551 2.5019 12.2157 0.414296 9.66323 0.414296H0.387166L0.27832 0.806884C0.27832 0.806884 3.11496 1.4122 6.43475 3.45701L11.5481 23.6006H17.6803L27.0441 0.414296H20.7099ZM31.5466 23.6H25.6611L29.3395 0.414296H35.2256L31.5466 23.6ZM60.5262 15.3984L63.6186 6.72176L65.3583 15.3984H60.5262Z" fill="#2566AF"/>
<path d="M14.4349 12.9275L12.4551 2.5019C12.4551 2.5019 12.2157 0.414296 9.66323 0.414296H0.387166L0.27832 0.806884C0.27832 0.806884 4.73676 1.75363 9.01318 5.30429C13.1022 8.69804 14.4349 12.9275 14.4349 12.9275Z" fill="#E6A540"/>
</svg>
