<svg width="24" height="24" viewBox="0 0 24 24" fill="none" xmlns="http://www.w3.org/2000/svg">
<path fill-rule="evenodd" clip-rule="evenodd" d="M0.144047 0.810364C0.406634 0.416484 0.938806 0.31005 1.33269 0.572636L6.47552 4.00119C6.65823 4.123 6.78723 4.31029 6.83589 4.52442L9.54139 16.4286H19.6444L20.4847 13.5715H12.2857C11.8123 13.5715 11.4285 13.1877 11.4285 12.7143C11.4285 12.241 11.8123 11.8572 12.2857 11.8572H20.9889L21.9973 8.42865H12.2858C11.8124 8.42865 11.4286 8.04489 11.4286 7.57151C11.4286 7.09812 11.8124 6.71437 12.2858 6.71437H23.1429C23.413 6.71437 23.6673 6.84171 23.8291 7.058C23.991 7.27429 24.0414 7.55421 23.9652 7.81336L21.108 17.5276C21.0007 17.8924 20.666 18.1429 20.2857 18.1429H8.8572C8.457 18.1429 8.11006 17.866 8.02137 17.4757L5.24004 5.23785L0.381775 1.999C-0.012105 1.73642 -0.118539 1.20424 0.144047 0.810364ZM11.7142 21.5715C11.7142 22.676 10.8188 23.5714 9.71425 23.5714C8.60968 23.5714 7.71425 22.676 7.71425 21.5715C7.71425 20.4669 8.60968 19.5715 9.71425 19.5715C10.8188 19.5715 11.7142 20.4669 11.7142 21.5715ZM21.4285 21.5715C21.4285 22.676 20.5331 23.5714 19.4285 23.5714C18.3239 23.5714 17.4285 22.676 17.4285 21.5715C17.4285 20.4669 18.3239 19.5715 19.4285 19.5715C20.5331 19.5715 21.4285 20.4669 21.4285 21.5715Z" fill="#1C1C1C"/>
</svg>
