<svg width="22" height="26" viewBox="0 0 22 26" fill="none" xmlns="http://www.w3.org/2000/svg">
<path d="M18.9548 15.2727V19.8182H16.682V15.2727H18.9548ZM5.3184 15.2727V19.8182H4.18204C3.55704 19.8182 3.04568 19.3068 3.04568 18.6818V15.2727H5.3184ZM11.0002 0.5C5.35249 0.5 0.772949 5.07955 0.772949 10.7273V18.6818C0.772949 20.5682 2.29568 22.0909 4.18204 22.0909H7.59113V13H3.04568V10.7273C3.04568 6.32955 6.60249 2.77273 11.0002 2.77273C15.3979 2.77273 18.9548 6.32955 18.9548 10.7273V13H14.4093V22.0909H18.9548V23.2273H11.0002V25.5H17.8184C19.7048 25.5 21.2275 23.9773 21.2275 22.0909V10.7273C21.2275 5.07955 16.6479 0.5 11.0002 0.5Z" fill="white"/>
</svg>
