<svg width="20" height="25" viewBox="0 0 20 25" fill="none" xmlns="http://www.w3.org/2000/svg">
<path d="M19.4604 18.5765C19.4604 18.5765 18.2656 17.415 17.6823 16.9248C17.1367 16.4559 16.2523 15.8272 15.7631 15.5075C14.8882 14.9428 13.985 15.2944 13.6181 15.8592L12.8466 16.9781C12.4515 17.5429 11.84 17.447 11.6801 17.415C10.5417 17.0953 9.32808 16.2854 8.09564 14.9321C6.84439 13.5575 6.08235 12.1296 5.81893 10.6377L5.80011 10.5418C5.72485 9.93441 5.81893 9.64669 6.03531 9.23111L6.07294 9.18848C6.59038 8.64502 7.55939 7.97369 7.6911 7.33432C8.06742 6.22609 6.42103 3.93503 6.18583 3.5301C6.18583 3.5301 4.99103 1.73988 4.56767 1.38822C4.10669 0.951325 3.40109 0.706235 2.67668 1.20707L2.63905 1.23904C0.578714 2.81614 -0.173918 3.73256 0.0330563 5.08589L0.14595 5.62935C1.19023 9.35898 3.21293 13.3444 6.22347 16.8928C9.20578 20.3987 12.4233 22.4873 15.6032 23.9472C16.4311 24.2562 17.2872 23.9898 18.1621 23.1373L18.1809 23.1266C18.8583 22.4127 19.3851 21.6561 19.7803 20.8356V20.8143C20.166 19.9511 20.0343 19.1306 19.4604 18.5765Z" fill="#1C1C1C"/>
</svg>
